<svg height="512" viewBox="0 0 60 60" width="512" xmlns="http://www.w3.org/2000/svg"><g id="Page-1" fill="none" fill-rule="evenodd"><g id="001---France" fill-rule="nonzero" transform="translate(0 -1)"><path id="Shape" d="m59 48c0 2-1 5-4 5-1.2968113.0559567-2.5593316-.4251757-3.49-1.33-.3046214-.3093249-.7759631-.3824642-1.16-.18-.89.47-2.18.3-5.35-.49-.3263569-.0861514-.6624635-.1298452-1-.13v-43.51c2.6783933.02506631 5.3516871.23892982 8 .64 2.0904416.38635174 4.1469045.93808568 6.15 1.65.476861.17756289.7408709.6882706.61 1.18-.4694851 1.6845698-.7248298 3.4215851-.76 5.17 0 3 0 3-3 5-1.7382099 1.0947728-2.8520051 2.9510982-3 5 0 0 1-1 4 0s2 6 0 8-3 4-1 8 4 4 4 6z" fill="#f44335"/><path id="Shape" d="m49 8c2.0904416.38635174 4.1469045.93808568 6.15 1.65.476861.17756289.7408709.6882706.61 1.18-.4694851 1.6845698-.7248298 3.4215851-.76 5.17 0 3 0 3-3 5-1.7382099 1.0947728-2.8520051 2.9510982-3 5 0 0 .781-.773 3.018-.273.239082-1.9416129 1.3326201-3.6750651 2.982-4.727 3-2 3-2 3-5 .0351702-1.7484149.2905149-3.4854302.76-5.17.1308709-.4917294-.133139-1.00243711-.61-1.18-2.0030955-.71191432-4.0595584-1.26364826-6.15-1.65-2.6483129-.40107018-5.3216067-.61493369-8-.64v.133c1.677163.04115365 3.3487141.21064893 5 .507z" fill="#c81e1e"/><path id="Shape" d="m55 42c-2-4-1-6 1-8s3-7 0-8c-2.1-.7-3.2-.422-3.686-.191.222.057.437.108.686.191 3 1 2 6 0 8s-3 4-1 8 4 4 4 6c0 1.664-.7 4.015-2.658 4.759.5373344.1635589 1.0963371.2448132 1.658.241 3 0 4-3 4-5s-2-2-4-6z" fill="#c81e1e"/><path id="Shape" d="m40 57c2 2 1 3-4 3-3.3722337-.2173536-6.7186185-.7326969-10-1.54v-50.49c1.13-.08 2-.45 2-1.97 0-4 4-4 6-4s1 2 4 4c1.45.97 3.6 1.23 6 1.36v43.51c-3.47-.04-5.83 4.3-4 6.13z" fill="#f5f5f5"/><path id="Shape" d="m26 7.97v50.49c-2.9269088-.720589-5.9061808-1.2087749-8.91-1.46-4 0-11.02-1.76-11.09-4-.08-3 2-2 6-2s8-9 5-11-2-5-4-10-4-8-8-8-4-3-4-4 0-3 1-3c4 0 4 2 7 2s3-2 3-3-4-5-1-5 2 2 5 2c1.7186853.0246005 3.422983-.3162591 5-1 .62-2.48 3.16-1.89 5-2.03z" fill="#3f51b5"/><path id="Shape" d="m55.9 41.553c-1.7-3.4-1.061-4.973.812-6.846 1.7176972-1.8493861 2.4723652-4.3952806 2.04-6.882-.2538394-1.2939063-1.1815934-2.352561-2.431-2.774-.9600393-.3513094-1.9781107-.5169156-3-.488.4391157-1.1225107 1.2208011-2.0780982 2.234-2.731 3.153-2.103 3.445-2.395 3.445-5.832.0360605-1.6592941.278593-3.3076415.722-4.907.2709713-.9906461-.2592839-2.02425322-1.222-2.382-2.0522196-.72860443-4.158766-1.29402824-6.3-1.691-2.0852404-.35784014-4.1954412-.55077088-6.311-.577-2.958-.114-5.751-.222-7.33-1.275-.9019194-.56680763-1.6123926-1.39191823-2.039-2.368-.3456135-1.09409881-1.3729508-1.82791113-2.52-1.8-1.915 0-7 0-7 5 0 .809-.078 1-2.125 1-1.549 0-3.84 0-4.692 2.263-1.3382776.49665643-2.7555664.7463676-4.183.737-.6796059.0893756-1.3572887-.17784231-1.793-.707-.81052-.90518431-1.9952963-1.38286308-3.207-1.293-.763722-.0921838-1.51133476.26815385-1.915.923-.625 1.153.315 2.593 1.215 3.985.2593857.3724202.493254.761978.7 1.166 0 1-.048 1.926-2 1.926-.8716342.0064433-1.72367932-.2584666-2.438-.758-1.36062543-.8645729-2.95088064-1.2975183-4.562-1.242-2 0-2 2.7-2 4 0 4.132 2.719 5 5 5 3.046 0 4.9 1.929 7.074 7.372.5907635 1.5321377 1.0318205 3.1178667 1.317 4.735.461 2.286.859 4.26 3.057 5.725.7.465.8 1.918.26 3.7-.898 2.968-3.052 5.468-4.708 5.468-.868 0-1.65-.049-2.341-.093-1.753-.111-3.016-.19-3.891.656-.59043292.6779605-.86907971 1.5726779-.768 2.466.1 3.442 8.8 4.971 12.088 4.971 2.7902771.2305885 5.5577183.6833574 8.276 1.354 3.881.809 7.893 1.646 10.636 1.646 3.635 0 5.325-.5 5.833-1.727.543-1.311-.713-2.567-1.126-2.98-.565-.565-.359-1.629.1-2.433.741342-1.4492043 2.3606585-2.2232326 3.954-1.89 3.257.814 4.819 1.052 6.04.4 1.1139524 1.1007495 2.6341245 1.6908615 4.199 1.63 3.283 0 5-3.019 5-6-.0489896-1.1660857-.6145107-2.2498484-1.543-2.957-1.0557247-.9997015-1.9219925-2.1820538-2.557-3.49zm-48.9 11.419c-.022-.759.127-.942.158-.971.29896754-.1447264.6332951-.2002741.963-.16.426 0 .934.032 1.412.062.72.046 1.537.1 2.467.1 2.945 0 5.609-3.549 6.62-6.888.838-2.768.45-4.934-1.065-5.944s-1.772-2.3-2.2-4.456c-.3098791-1.736236-.7857286-3.4387125-1.421-5.084-2.134-5.331-4.371-8.631-8.934-8.631-2.637 0-3-1.442-3-3-.0457136-.6723861.01743224-1.3477427.187-2 1.19708394-.0211925 2.3729186.3177962 3.375.973 1.01903432.6751906 2.21559189 1.0326265 3.438 1.027 2.654 0 4-1.346 4-4-.1349434-.8071427-.4880067-1.5620272-1.021-2.183-.3978457-.5747209-.745463-1.1826331-1.039-1.817h.06c.6796059-.08937559 1.3572887.1778423 1.793.707.81052.9051843 1.9952963 1.3828631 3.207 1.293 1.8733578.0262139 3.7306269-.3488542 5.447-1.1.2611573-.1305603.4522101-.368737.523-.652.282-1.136 1.062-1.248 2.905-1.248h.125v48.235c-2.5977244-.6343639-5.2445225-1.047508-7.912-1.235-4.601 0-10.057-2-10.088-3.028zm32.061-.1c-1.011 1.785-.921 3.682.23 4.832.2568782.2329278.4731703.5070105.64.811-.242.147-1.1.482-3.933.482-3.0336389-.1859715-6.0451524-.6373639-9-1.349v-48.848c1.2896761-.27720268 2.1568159-1.4899856 2.002-2.8 0-2.5 1.913-3 5-3 .382 0 .382 0 .73.7.5828873 1.28550134 1.5259504 2.37445262 2.715 3.135 1.7003099.94446817 3.6100607 1.44811981 5.555 1.465v41.674c-1.66952.3534616-3.1048672 1.411105-3.937 2.901zm15.939-.872c-1.0261738.0563691-2.0298126-.3151076-2.772-1.026-.6116289-.6263785-1.5621338-.7764582-2.337-.369-.571.3-1.744.151-4.648-.575-.083-.021-.161-.021-.243-.037v-41.584l.807.033c2.0108719.02452226 4.0168428.20439099 6 .538 2.0327211.38042006 4.0340123.91291663 5.987 1.593-.4899199 1.7688161-.7566573 3.5919694-.794 5.427 0 2.465 0 2.465-2.555 4.168-2.0177415 1.2784698-3.2991678 3.4477813-3.445 5.832-.010919.4056716.2217902.7785576.591.947.3601431.1643904.7845394.0874087 1.064-.193.008-.006.789-.552 3.029.2.5904001.2012815 1.0202996.7136171 1.116 1.33.2655726 1.8105487-.2865025 3.6455481-1.507 5.009-2.307 2.307-3.392 4.746-1.188 9.154.7322806 1.5012269 1.7272965 2.8592984 2.938 4.01.743.743.957.982.957 1.543 0 1.383-.627 4-3 4z" fill="#000"/></g></g></svg>